<?xml version="1.0" encoding="UTF-8"?>
<svg width="240" height="240" viewBox="0 0 240 240" xmlns="http://www.w3.org/2000/svg">
  <rect width="100%" height="100%" fill="none"/>
  <!-- Green crossed wrench/screwdriver icon inspired by attached logo -->
  <g transform="translate(40,40) scale(0.9)">
    <path d="M54.6 6.5c-2.4-2.4-6.3-2.4-8.7 0l-9.6 9.6 9.7 9.7 9.6-9.6c2.4-2.4 2.4-6.3 0-8.7z" fill="#2fa64f"/>
    <path d="M11.8 49.3l60.8-60.8 8.6 8.6L20.4 57.9z" fill="#2fa64f"/>
    <path d="M127.8 129.4c6.5-6.5 6.5-17 0-23.5l-12.7-12.7-31.9 31.9 12.7 12.7c6.5 6.5 17 6.5 23.5 0l7.9-7.9z" fill="#2fa64f"/>
    <circle cx="62" cy="62" r="10" fill="#2fa64f"/>
  </g>
</svg>